<mxfile host="app.diagrams.net" agent="Mozilla/5.0 (Windows NT 10.0; Win64; x64) AppleWebKit/537.36 (KHTML, like Gecko) Chrome/129.0.0.0 Safari/537.36" version="24.8.1">
  <diagram name="Page-1" id="-H_mtQnk-PTXWXPvYvuk">
    <mxGraphModel dx="1047" dy="1742" grid="1" gridSize="10" guides="1" tooltips="1" connect="1" arrows="1" fold="1" page="1" pageScale="1" pageWidth="1169" pageHeight="827" math="0" shadow="0">
      <root>
        <mxCell id="0" />
        <mxCell id="1" parent="0" />
        <mxCell id="cidqjVt5TANMzqTdymb0-22" style="edgeStyle=orthogonalEdgeStyle;rounded=0;orthogonalLoop=1;jettySize=auto;html=1;exitX=0.5;exitY=1;exitDx=0;exitDy=0;entryX=0.476;entryY=0.004;entryDx=0;entryDy=0;entryPerimeter=0;" edge="1" parent="1" source="cidqjVt5TANMzqTdymb0-1" target="eUgnzbrfR_kHX7VscJpC-3">
          <mxGeometry relative="1" as="geometry">
            <mxPoint x="890" y="330" as="targetPoint" />
          </mxGeometry>
        </mxCell>
        <mxCell id="eUgnzbrfR_kHX7VscJpC-20" value="" style="rounded=0;whiteSpace=wrap;html=1;fillColor=#f5f5f5;fontColor=#333333;strokeColor=#666666;" parent="1" vertex="1">
          <mxGeometry x="20" y="184.6153846153846" width="388.068669527897" height="392.30769230769226" as="geometry" />
        </mxCell>
        <mxCell id="eUgnzbrfR_kHX7VscJpC-52" value="&lt;h1 style=&quot;margin-top: 0px; line-height: 100%;&quot;&gt;&lt;font face=&quot;Times New Roman&quot; style=&quot;font-size: 24px; font-weight: normal;&quot;&gt;Потоки данных&lt;/font&gt;&lt;/h1&gt;&lt;p style=&quot;line-height: 100%; font-size: 24px;&quot;&gt;&lt;font face=&quot;Dj_tqtFKRIqxudUfva3N&quot; style=&quot;font-size: 24px;&quot;&gt;1. pymongo-api&amp;nbsp; &amp;lt;-&amp;gt; redis:&lt;/font&gt;&lt;/p&gt;&lt;p style=&quot;line-height: 100%; font-size: 24px;&quot;&gt;&lt;font face=&quot;Dj_tqtFKRIqxudUfva3N&quot; style=&quot;font-size: 24px;&quot;&gt;&lt;font style=&quot;font-size: 24px;&quot;&gt;&lt;span style=&quot;white-space: pre;&quot;&gt;&#x9;&lt;/span&gt;- п&lt;/font&gt;&lt;span style=&quot;background-color: initial;&quot;&gt;&lt;font style=&quot;font-size: 24px;&quot;&gt;роверка наличия данных в кеше перед запросом к бд;&lt;/font&gt;&lt;/span&gt;&lt;/font&gt;&lt;/p&gt;&lt;p style=&quot;line-height: 100%; font-size: 24px;&quot;&gt;&lt;span style=&quot;font-family: Dj_tqtFKRIqxudUfva3N; background-color: initial;&quot;&gt;&lt;span style=&quot;white-space: pre;&quot;&gt;&#x9;&lt;/span&gt;- возврат кешированных данных, если они доступны;&lt;/span&gt;&lt;/p&gt;&lt;p style=&quot;line-height: 100%; font-size: 24px;&quot;&gt;&lt;span style=&quot;background-color: initial;&quot;&gt;&lt;font face=&quot;Dj_tqtFKRIqxudUfva3N&quot;&gt;2.&amp;nbsp;mongos &amp;lt;-&amp;gt; redis:&lt;/font&gt;&lt;/span&gt;&lt;br&gt;&lt;/p&gt;&lt;p style=&quot;line-height: 100%; font-size: 24px;&quot;&gt;&lt;font face=&quot;Dj_tqtFKRIqxudUfva3N&quot; style=&quot;font-size: 24px;&quot;&gt;&lt;font style=&quot;font-size: 24px;&quot;&gt;&amp;nbsp;&lt;span style=&quot;white-space: pre;&quot;&gt;&#x9;&lt;/span&gt;- cохранение результатов запросов в кеш;&lt;/font&gt;&lt;br&gt;&lt;/font&gt;&lt;/p&gt;&lt;p style=&quot;line-height: 100%; font-size: 24px;&quot;&gt;&lt;font face=&quot;Dj_tqtFKRIqxudUfva3N&quot; style=&quot;font-size: 24px;&quot;&gt;&lt;font style=&quot;font-size: 24px;&quot;&gt;&lt;span style=&quot;white-space: pre;&quot;&gt;&#x9;&lt;/span&gt;- предоставление кешированных данных для ускорения ответов;&lt;/font&gt;&lt;br&gt;&lt;/font&gt;&lt;/p&gt;&lt;p style=&quot;line-height: 100%; font-size: 24px;&quot;&gt;&lt;span style=&quot;background-color: initial;&quot;&gt;&lt;font face=&quot;Dj_tqtFKRIqxudUfva3N&quot;&gt;3.&amp;nbsp;&lt;span style=&quot;background-color: initial;&quot;&gt;pymongo-api&amp;nbsp; -&amp;gt; mongos:&lt;/span&gt;&lt;/font&gt;&lt;/span&gt;&lt;br&gt;&lt;/p&gt;&lt;p style=&quot;line-height: 100%; font-size: 24px;&quot;&gt;&lt;font face=&quot;Dj_tqtFKRIqxudUfva3N&quot; style=&quot;font-size: 24px;&quot;&gt;&lt;span style=&quot;white-space: pre;&quot;&gt;&#x9;&lt;/span&gt;- запросы на чтение и запись данных;&lt;/font&gt;&lt;/p&gt;&lt;p style=&quot;line-height: 100%; font-size: 24px;&quot;&gt;&lt;font face=&quot;Dj_tqtFKRIqxudUfva3N&quot; style=&quot;font-size: 24px;&quot;&gt;&lt;span style=&quot;background-color: initial;&quot;&gt;&lt;/span&gt;&lt;/font&gt;&lt;/p&gt;&lt;p style=&quot;line-height: 100%; font-size: 24px;&quot;&gt;&lt;font face=&quot;Dj_tqtFKRIqxudUfva3N&quot; style=&quot;font-size: 24px;&quot;&gt;&lt;span style=&quot;white-space: pre;&quot;&gt;&#x9;&lt;/span&gt;- команды администрирования;&lt;/font&gt;&lt;/p&gt;&lt;p style=&quot;line-height: 100%; font-size: 24px;&quot;&gt;&lt;font face=&quot;Dj_tqtFKRIqxudUfva3N&quot; style=&quot;font-size: 24px;&quot;&gt;4. mongos -&amp;gt; шарды (shard0, shard1):&lt;/font&gt;&lt;/p&gt;&lt;p style=&quot;line-height: 100%; font-size: 24px;&quot;&gt;&lt;font face=&quot;Dj_tqtFKRIqxudUfva3N&quot; style=&quot;font-size: 24px;&quot;&gt;&lt;span style=&quot;white-space: pre;&quot;&gt;&#x9;&lt;/span&gt;- перенаправление запросов на чтение и запись;&lt;/font&gt;&lt;/p&gt;&lt;p style=&quot;line-height: 100%; font-size: 24px;&quot;&gt;&lt;font face=&quot;Dj_tqtFKRIqxudUfva3N&quot; style=&quot;font-size: 24px;&quot;&gt;&lt;span style=&quot;white-space: pre;&quot;&gt;&#x9;&lt;/span&gt;- команды балансировки данных;&lt;/font&gt;&lt;/p&gt;&lt;p style=&quot;line-height: 100%; font-size: 24px;&quot;&gt;&lt;font face=&quot;Dj_tqtFKRIqxudUfva3N&quot; style=&quot;font-size: 24px;&quot;&gt;&lt;span style=&quot;background-color: initial;&quot;&gt;5. mongos -&amp;gt; конфигурационные серверы:&lt;/span&gt;&lt;br&gt;&lt;/font&gt;&lt;/p&gt;&lt;p style=&quot;line-height: 100%; font-size: 24px;&quot;&gt;&lt;font face=&quot;Dj_tqtFKRIqxudUfva3N&quot; style=&quot;font-size: 24px;&quot;&gt;&lt;span style=&quot;white-space: pre;&quot;&gt;&#x9;&lt;/span&gt;- запросы метаданных о распределении данных;&lt;/font&gt;&lt;/p&gt;&lt;p style=&quot;line-height: 100%; font-size: 24px;&quot;&gt;&lt;font face=&quot;Dj_tqtFKRIqxudUfva3N&quot; style=&quot;font-size: 24px;&quot;&gt;&lt;span style=&quot;white-space: pre;&quot;&gt;&#x9;&lt;/span&gt;- обновления конфигурации кластера;&lt;/font&gt;&lt;/p&gt;&lt;p style=&quot;line-height: 100%; font-size: 24px;&quot;&gt;&lt;font face=&quot;Dj_tqtFKRIqxudUfva3N&quot; style=&quot;font-size: 24px;&quot;&gt;6. шарды -&amp;gt; конфигурационные серверы:&lt;/font&gt;&lt;/p&gt;&lt;p style=&quot;line-height: 100%; font-size: 24px;&quot;&gt;&lt;font face=&quot;Dj_tqtFKRIqxudUfva3N&quot; style=&quot;font-size: 24px;&quot;&gt;&lt;span style=&quot;white-space: pre;&quot;&gt;&#x9;&lt;/span&gt;- отчеты о состоянии и статистике шардов;&lt;/font&gt;&lt;/p&gt;&lt;p style=&quot;line-height: 100%; font-size: 24px;&quot;&gt;&lt;font face=&quot;Dj_tqtFKRIqxudUfva3N&quot; style=&quot;font-size: 24px;&quot;&gt;&lt;font style=&quot;font-size: 24px;&quot;&gt;7. в&lt;/font&gt;&lt;span style=&quot;background-color: initial;&quot;&gt;&lt;font style=&quot;font-size: 24px;&quot;&gt;нутри каждого шарда&lt;/font&gt;&lt;/span&gt;&lt;span style=&quot;background-color: initial;&quot;&gt;:&lt;/span&gt;&lt;/font&gt;&lt;/p&gt;&lt;p style=&quot;line-height: 100%; font-size: 24px;&quot;&gt;&lt;font face=&quot;Dj_tqtFKRIqxudUfva3N&quot; style=&quot;font-size: 24px;&quot;&gt;&lt;span style=&quot;white-space: pre;&quot;&gt;&#x9;&lt;/span&gt;- репликация данных между Primary и Secondary;&lt;br&gt;&lt;/font&gt;&lt;/p&gt;&lt;p style=&quot;line-height: 100%; font-size: 24px;&quot;&gt;&lt;span style=&quot;font-family: Dj_tqtFKRIqxudUfva3N; background-color: initial;&quot;&gt;8.&amp;nbsp; конфигурационные серверы между собой:&lt;/span&gt;&lt;br&gt;&lt;/p&gt;&lt;p style=&quot;line-height: 100%; font-size: 24px;&quot;&gt;&lt;/p&gt;&lt;p style=&quot;line-height: 100%; font-size: 24px;&quot;&gt;&lt;font face=&quot;Dj_tqtFKRIqxudUfva3N&quot; style=&quot;font-size: 24px;&quot;&gt;&lt;span style=&quot;white-space: pre;&quot;&gt;&#x9;&lt;/span&gt;- cинхронизация метаданных кластера.&lt;/font&gt;&lt;/p&gt;" style="text;html=1;whiteSpace=wrap;overflow=hidden;rounded=0;fillColor=#f5f5f5;strokeColor=none;fontColor=#333333;align=left;" parent="1" vertex="1">
          <mxGeometry x="1408" width="930" height="1226.75" as="geometry" />
        </mxCell>
        <mxCell id="eUgnzbrfR_kHX7VscJpC-44" style="edgeStyle=orthogonalEdgeStyle;rounded=0;orthogonalLoop=1;jettySize=auto;html=1;exitX=0.5;exitY=1;exitDx=0;exitDy=0;entryX=0.5;entryY=1;entryDx=0;entryDy=0;" parent="1" source="eUgnzbrfR_kHX7VscJpC-20" target="eUgnzbrfR_kHX7VscJpC-11" edge="1">
          <mxGeometry relative="1" as="geometry">
            <Array as="points">
              <mxPoint x="214.0343347639485" y="1200" />
              <mxPoint x="1166.5665236051502" y="1200" />
            </Array>
          </mxGeometry>
        </mxCell>
        <mxCell id="eUgnzbrfR_kHX7VscJpC-29" style="edgeStyle=orthogonalEdgeStyle;rounded=0;orthogonalLoop=1;jettySize=auto;html=1;exitX=0.5;exitY=1;exitDx=0;exitDy=0;exitPerimeter=0;entryX=0.75;entryY=0;entryDx=0;entryDy=0;startArrow=none;startFill=0;" parent="1" source="eUgnzbrfR_kHX7VscJpC-3" target="eUgnzbrfR_kHX7VscJpC-14" edge="1">
          <mxGeometry relative="1" as="geometry">
            <mxPoint x="719.6995708154507" y="703.8461538461538" as="targetPoint" />
          </mxGeometry>
        </mxCell>
        <mxCell id="eUgnzbrfR_kHX7VscJpC-30" style="edgeStyle=orthogonalEdgeStyle;rounded=0;orthogonalLoop=1;jettySize=auto;html=1;exitX=0.5;exitY=1;exitDx=0;exitDy=0;exitPerimeter=0;entryX=0.25;entryY=0;entryDx=0;entryDy=0;" parent="1" source="eUgnzbrfR_kHX7VscJpC-3" target="eUgnzbrfR_kHX7VscJpC-11" edge="1">
          <mxGeometry relative="1" as="geometry" />
        </mxCell>
        <mxCell id="eUgnzbrfR_kHX7VscJpC-39" style="edgeStyle=orthogonalEdgeStyle;rounded=0;orthogonalLoop=1;jettySize=auto;html=1;exitX=0;exitY=0.5;exitDx=0;exitDy=0;exitPerimeter=0;entryX=1;entryY=0.5;entryDx=0;entryDy=0;startArrow=classic;startFill=1;" parent="1" source="eUgnzbrfR_kHX7VscJpC-3" target="eUgnzbrfR_kHX7VscJpC-20" edge="1">
          <mxGeometry relative="1" as="geometry" />
        </mxCell>
        <mxCell id="eUgnzbrfR_kHX7VscJpC-3" value="MongoS" style="shape=cylinder3;whiteSpace=wrap;html=1;boundedLbl=1;backgroundOutline=1;size=15;fillColor=#d5e8d4;strokeColor=#82b366;" parent="1" vertex="1">
          <mxGeometry x="806.7210300429184" y="336.9230769230769" width="176.39484978540773" height="88.26923076923076" as="geometry" />
        </mxCell>
        <mxCell id="eUgnzbrfR_kHX7VscJpC-12" value="" style="group;" parent="1" vertex="1" connectable="0">
          <mxGeometry x="943.1330472103004" y="669.2307692307692" width="446.86695278969955" height="346.15384615384613" as="geometry" />
        </mxCell>
        <mxCell id="eUgnzbrfR_kHX7VscJpC-11" value="" style="rounded=1;whiteSpace=wrap;html=1;fillColor=#f5f5f5;fontColor=#333333;strokeColor=#666666;" parent="eUgnzbrfR_kHX7VscJpC-12" vertex="1">
          <mxGeometry y="34.61538461538461" width="446.86695278969955" height="311.5384615384615" as="geometry" />
        </mxCell>
        <mxCell id="eUgnzbrfR_kHX7VscJpC-5" value="Mongod&lt;div&gt;shard1-0 (primary)&lt;/div&gt;" style="shape=cylinder3;whiteSpace=wrap;html=1;boundedLbl=1;backgroundOutline=1;size=15;fillColor=#e1d5e7;strokeColor=#9673a6;" parent="eUgnzbrfR_kHX7VscJpC-12" vertex="1">
          <mxGeometry x="135.23605150214593" y="46.153846153846146" width="176.39484978540773" height="88.26923076923076" as="geometry" />
        </mxCell>
        <mxCell id="eUgnzbrfR_kHX7VscJpC-10" value="shard1" style="text;html=1;align=center;verticalAlign=middle;whiteSpace=wrap;rounded=0;fontSize=18;" parent="eUgnzbrfR_kHX7VscJpC-12" vertex="1">
          <mxGeometry x="188.15450643776825" width="70.55793991416309" height="34.61538461538461" as="geometry" />
        </mxCell>
        <mxCell id="eUgnzbrfR_kHX7VscJpC-35" value="" style="dashed=0;outlineConnect=0;html=1;align=center;labelPosition=center;verticalLabelPosition=bottom;verticalAlign=top;shape=mxgraph.weblogos.mongodb" parent="eUgnzbrfR_kHX7VscJpC-12" vertex="1">
          <mxGeometry x="146.86369098712441" y="84.84615384615384" width="13.170815450643776" height="30.576923076923073" as="geometry" />
        </mxCell>
        <mxCell id="eUgnzbrfR_kHX7VscJpC-95" value="Mongod&lt;div&gt;shard1-1 (secondary)&lt;/div&gt;" style="shape=cylinder3;whiteSpace=wrap;html=1;boundedLbl=1;backgroundOutline=1;size=15;fillColor=#fff2cc;strokeColor=#d6b656;" parent="eUgnzbrfR_kHX7VscJpC-12" vertex="1">
          <mxGeometry x="21.251845493562314" y="210.7738461538462" width="176.39484978540773" height="88.26923076923076" as="geometry" />
        </mxCell>
        <mxCell id="eUgnzbrfR_kHX7VscJpC-96" value="" style="dashed=0;outlineConnect=0;html=1;align=center;labelPosition=center;verticalLabelPosition=bottom;verticalAlign=top;shape=mxgraph.weblogos.mongodb" parent="eUgnzbrfR_kHX7VscJpC-12" vertex="1">
          <mxGeometry x="36.251416309012825" y="250.76615384615377" width="13.170815450643776" height="30.576923076923073" as="geometry" />
        </mxCell>
        <mxCell id="eUgnzbrfR_kHX7VscJpC-97" value="" style="dashed=0;outlineConnect=0;html=1;align=center;labelPosition=center;verticalLabelPosition=bottom;verticalAlign=top;shape=mxgraph.weblogos.mongodb" parent="eUgnzbrfR_kHX7VscJpC-12" vertex="1">
          <mxGeometry x="262.1514163090128" y="250.76615384615377" width="13.170815450643776" height="30.576923076923073" as="geometry" />
        </mxCell>
        <mxCell id="eUgnzbrfR_kHX7VscJpC-98" value="Mongod&lt;div&gt;shard1-2 (secondary)&lt;br&gt;&lt;/div&gt;" style="shape=cylinder3;whiteSpace=wrap;html=1;boundedLbl=1;backgroundOutline=1;size=15;fillColor=#fff2cc;strokeColor=#d6b656;" parent="eUgnzbrfR_kHX7VscJpC-12" vertex="1">
          <mxGeometry x="249.21184549356212" y="210.7738461538462" width="176.39484978540773" height="88.26923076923076" as="geometry" />
        </mxCell>
        <mxCell id="eUgnzbrfR_kHX7VscJpC-108" value="" style="endArrow=none;html=1;rounded=0;exitX=0.5;exitY=0;exitDx=0;exitDy=0;exitPerimeter=0;entryX=0.5;entryY=1;entryDx=0;entryDy=0;entryPerimeter=0;" parent="eUgnzbrfR_kHX7VscJpC-12" source="eUgnzbrfR_kHX7VscJpC-95" target="eUgnzbrfR_kHX7VscJpC-5" edge="1">
          <mxGeometry width="50" height="50" relative="1" as="geometry">
            <mxPoint x="116.66695278969951" y="208.9392307692308" as="sourcePoint" />
            <mxPoint x="228.6669527896995" y="136.9392307692308" as="targetPoint" />
          </mxGeometry>
        </mxCell>
        <mxCell id="eUgnzbrfR_kHX7VscJpC-109" value="" style="endArrow=none;html=1;rounded=0;entryX=0.5;entryY=0;entryDx=0;entryDy=0;entryPerimeter=0;exitX=0.5;exitY=1;exitDx=0;exitDy=0;exitPerimeter=0;" parent="eUgnzbrfR_kHX7VscJpC-12" source="eUgnzbrfR_kHX7VscJpC-5" target="eUgnzbrfR_kHX7VscJpC-98" edge="1">
          <mxGeometry width="50" height="50" relative="1" as="geometry">
            <mxPoint x="228.6669527896995" y="136.9392307692308" as="sourcePoint" />
            <mxPoint x="344.6669527896995" y="208.9392307692308" as="targetPoint" />
          </mxGeometry>
        </mxCell>
        <mxCell id="eUgnzbrfR_kHX7VscJpC-110" value="7" style="ellipse;whiteSpace=wrap;html=1;aspect=fixed;fillColor=#d80073;fontColor=#ffffff;strokeColor=#A50040;" parent="eUgnzbrfR_kHX7VscJpC-12" vertex="1">
          <mxGeometry x="283.5275965665237" y="169.01615384615377" width="23.076923076923073" height="23.076923076923073" as="geometry" />
        </mxCell>
        <mxCell id="eUgnzbrfR_kHX7VscJpC-111" value="7" style="ellipse;whiteSpace=wrap;html=1;aspect=fixed;fillColor=#d80073;fontColor=#ffffff;strokeColor=#A50040;" parent="eUgnzbrfR_kHX7VscJpC-12" vertex="1">
          <mxGeometry x="145.66759656652357" y="167.01615384615377" width="23.076923076923073" height="23.076923076923073" as="geometry" />
        </mxCell>
        <mxCell id="eUgnzbrfR_kHX7VscJpC-127" value="" style="dashed=0;outlineConnect=0;html=1;align=center;labelPosition=center;verticalLabelPosition=bottom;verticalAlign=top;shape=mxgraph.weblogos.mongodb" parent="eUgnzbrfR_kHX7VscJpC-12" vertex="1">
          <mxGeometry x="262.1514163090128" y="250.76615384615377" width="13.170815450643776" height="30.576923076923073" as="geometry" />
        </mxCell>
        <mxCell id="eUgnzbrfR_kHX7VscJpC-19" value="Mongod" style="shape=cylinder3;whiteSpace=wrap;html=1;boundedLbl=1;backgroundOutline=1;size=15;fillColor=#e1d5e7;strokeColor=#9673a6;" parent="1" vertex="1">
          <mxGeometry x="125.83690987124463" y="215.19230769230768" width="176.39484978540773" height="88.26923076923076" as="geometry" />
        </mxCell>
        <mxCell id="eUgnzbrfR_kHX7VscJpC-21" value="Конфигурационные серверы" style="text;html=1;align=center;verticalAlign=middle;whiteSpace=wrap;rounded=0;fontSize=18;" parent="1" vertex="1">
          <mxGeometry x="20" y="150" width="388.068669527897" height="34.61538461538461" as="geometry" />
        </mxCell>
        <mxCell id="eUgnzbrfR_kHX7VscJpC-22" value="Mongod" style="shape=cylinder3;whiteSpace=wrap;html=1;boundedLbl=1;backgroundOutline=1;size=15;fillColor=#e1d5e7;strokeColor=#9673a6;" parent="1" vertex="1">
          <mxGeometry x="125.83690987124463" y="323.0769230769231" width="176.39484978540773" height="88.26923076923076" as="geometry" />
        </mxCell>
        <mxCell id="eUgnzbrfR_kHX7VscJpC-23" value="Mongod" style="shape=cylinder3;whiteSpace=wrap;html=1;boundedLbl=1;backgroundOutline=1;size=15;fillColor=#e1d5e7;strokeColor=#9673a6;" parent="1" vertex="1">
          <mxGeometry x="125.83690987124463" y="426.9230769230769" width="176.39484978540773" height="88.26923076923076" as="geometry" />
        </mxCell>
        <mxCell id="eUgnzbrfR_kHX7VscJpC-24" value="configSrv0" style="text;html=1;align=center;verticalAlign=middle;whiteSpace=wrap;rounded=0;fontSize=16;" parent="1" vertex="1">
          <mxGeometry x="43.51931330472103" y="242.01923076923077" width="70.55793991416309" height="34.61538461538461" as="geometry" />
        </mxCell>
        <mxCell id="eUgnzbrfR_kHX7VscJpC-25" value="configSrv1" style="text;html=1;align=center;verticalAlign=middle;whiteSpace=wrap;rounded=0;fontSize=16;" parent="1" vertex="1">
          <mxGeometry x="43.51931330472103" y="349.90384615384613" width="70.55793991416309" height="34.61538461538461" as="geometry" />
        </mxCell>
        <mxCell id="eUgnzbrfR_kHX7VscJpC-26" value="configSrv2" style="text;html=1;align=center;verticalAlign=middle;whiteSpace=wrap;rounded=0;fontSize=16;" parent="1" vertex="1">
          <mxGeometry x="43.51931330472103" y="453.75" width="70.55793991416309" height="34.61538461538461" as="geometry" />
        </mxCell>
        <mxCell id="eUgnzbrfR_kHX7VscJpC-2" value="" style="dashed=0;outlineConnect=0;html=1;align=center;labelPosition=center;verticalLabelPosition=bottom;verticalAlign=top;shape=mxgraph.weblogos.mongodb" parent="1" vertex="1">
          <mxGeometry x="172.8755364806867" y="473.07692307692304" width="13.170815450643776" height="30.576923076923073" as="geometry" />
        </mxCell>
        <mxCell id="eUgnzbrfR_kHX7VscJpC-31" value="" style="dashed=0;outlineConnect=0;html=1;align=center;labelPosition=center;verticalLabelPosition=bottom;verticalAlign=top;shape=mxgraph.weblogos.mongodb" parent="1" vertex="1">
          <mxGeometry x="172.8755364806867" y="365.48076923076917" width="13.170815450643776" height="30.576923076923073" as="geometry" />
        </mxCell>
        <mxCell id="eUgnzbrfR_kHX7VscJpC-32" value="" style="dashed=0;outlineConnect=0;html=1;align=center;labelPosition=center;verticalLabelPosition=bottom;verticalAlign=top;shape=mxgraph.weblogos.mongodb" parent="1" vertex="1">
          <mxGeometry x="172.8755364806867" y="258.46153846153845" width="13.170815450643776" height="30.576923076923073" as="geometry" />
        </mxCell>
        <mxCell id="eUgnzbrfR_kHX7VscJpC-33" value="" style="dashed=0;outlineConnect=0;html=1;align=center;labelPosition=center;verticalLabelPosition=bottom;verticalAlign=top;shape=mxgraph.weblogos.mongodb" parent="1" vertex="1">
          <mxGeometry x="849.0557939914163" y="380.7692307692307" width="13.170815450643776" height="30.576923076923073" as="geometry" />
        </mxCell>
        <mxCell id="eUgnzbrfR_kHX7VscJpC-36" value="1" style="ellipse;whiteSpace=wrap;html=1;aspect=fixed;fillColor=#d80073;fontColor=#ffffff;strokeColor=#A50040;" parent="1" vertex="1">
          <mxGeometry x="962.9787982832618" y="-529.9953846153846" width="23.076923076923073" height="23.076923076923073" as="geometry" />
        </mxCell>
        <mxCell id="eUgnzbrfR_kHX7VscJpC-38" value="4" style="ellipse;whiteSpace=wrap;html=1;aspect=fixed;fillColor=#d80073;fontColor=#ffffff;strokeColor=#A50040;" parent="1" vertex="1">
          <mxGeometry x="883.1587982832618" y="492.1153846153846" width="23.076923076923073" height="23.076923076923073" as="geometry" />
        </mxCell>
        <mxCell id="eUgnzbrfR_kHX7VscJpC-40" value="5" style="ellipse;whiteSpace=wrap;html=1;aspect=fixed;fillColor=#d80073;fontColor=#ffffff;strokeColor=#A50040;" parent="1" vertex="1">
          <mxGeometry x="531.5450643776824" y="369.23076923076917" width="23.076923076923073" height="23.076923076923073" as="geometry" />
        </mxCell>
        <mxCell id="eUgnzbrfR_kHX7VscJpC-47" value="" style="endArrow=classic;html=1;rounded=0;entryX=0.5;entryY=1;entryDx=0;entryDy=0;" parent="1" target="eUgnzbrfR_kHX7VscJpC-14" edge="1">
          <mxGeometry width="50" height="50" relative="1" as="geometry">
            <mxPoint x="625.6223175965665" y="1200" as="sourcePoint" />
            <mxPoint x="625.6223175965665" y="876.9230769230769" as="targetPoint" />
          </mxGeometry>
        </mxCell>
        <mxCell id="eUgnzbrfR_kHX7VscJpC-51" value="6" style="ellipse;whiteSpace=wrap;html=1;aspect=fixed;fillColor=#d80073;fontColor=#ffffff;strokeColor=#A50040;" parent="1" vertex="1">
          <mxGeometry x="203.45064377682402" y="773.076923076923" width="23.076923076923073" height="23.076923076923073" as="geometry" />
        </mxCell>
        <mxCell id="eUgnzbrfR_kHX7VscJpC-14" value="" style="rounded=1;whiteSpace=wrap;html=1;fillColor=#f5f5f5;fontColor=#333333;strokeColor=#666666;" parent="1" vertex="1">
          <mxGeometry x="402.18884120171674" y="703.8461538461538" width="446.86695278969955" height="311.5384615384615" as="geometry" />
        </mxCell>
        <mxCell id="eUgnzbrfR_kHX7VscJpC-15" value="Mongod&lt;div&gt;shard0-0 (primary)&lt;br&gt;&lt;/div&gt;" style="shape=cylinder3;whiteSpace=wrap;html=1;boundedLbl=1;backgroundOutline=1;size=15;fillColor=#e1d5e7;strokeColor=#9673a6;" parent="1" vertex="1">
          <mxGeometry x="531.5448927038627" y="730.0046153846154" width="176.39484978540773" height="88.26923076923076" as="geometry" />
        </mxCell>
        <mxCell id="eUgnzbrfR_kHX7VscJpC-16" value="shard0" style="text;html=1;align=center;verticalAlign=middle;whiteSpace=wrap;rounded=0;fontSize=18;" parent="1" vertex="1">
          <mxGeometry x="590.343347639485" y="669.2307692307692" width="70.55793991416309" height="34.61538461538461" as="geometry" />
        </mxCell>
        <mxCell id="eUgnzbrfR_kHX7VscJpC-34" value="" style="dashed=0;outlineConnect=0;html=1;align=center;labelPosition=center;verticalLabelPosition=bottom;verticalAlign=top;shape=mxgraph.weblogos.mongodb" parent="1" vertex="1">
          <mxGeometry x="554.6244635193133" y="769.326923076923" width="13.170815450643776" height="30.576923076923073" as="geometry" />
        </mxCell>
        <mxCell id="eUgnzbrfR_kHX7VscJpC-88" value="Mongod&lt;div&gt;shard0-1 (secondary)&lt;/div&gt;" style="shape=cylinder3;whiteSpace=wrap;html=1;boundedLbl=1;backgroundOutline=1;size=15;fillColor=#fff2cc;strokeColor=#d6b656;" parent="1" vertex="1">
          <mxGeometry x="420.0048927038627" y="890.0046153846154" width="176.39484978540773" height="88.26923076923076" as="geometry" />
        </mxCell>
        <mxCell id="eUgnzbrfR_kHX7VscJpC-91" value="Mongod&lt;div&gt;shard0-2 (secondary)&lt;br&gt;&lt;/div&gt;" style="shape=cylinder3;whiteSpace=wrap;html=1;boundedLbl=1;backgroundOutline=1;size=15;fillColor=#fff2cc;strokeColor=#d6b656;" parent="1" vertex="1">
          <mxGeometry x="647.9648927038627" y="890.0046153846154" width="176.39484978540773" height="88.26923076923076" as="geometry" />
        </mxCell>
        <mxCell id="eUgnzbrfR_kHX7VscJpC-92" value="" style="dashed=0;outlineConnect=0;html=1;align=center;labelPosition=center;verticalLabelPosition=bottom;verticalAlign=top;shape=mxgraph.weblogos.mongodb" parent="1" vertex="1">
          <mxGeometry x="435.0044635193133" y="929.9969230769229" width="13.170815450643776" height="30.576923076923073" as="geometry" />
        </mxCell>
        <mxCell id="eUgnzbrfR_kHX7VscJpC-93" value="" style="dashed=0;outlineConnect=0;html=1;align=center;labelPosition=center;verticalLabelPosition=bottom;verticalAlign=top;shape=mxgraph.weblogos.mongodb" parent="1" vertex="1">
          <mxGeometry x="660.9044635193133" y="929.9969230769229" width="13.170815450643776" height="30.576923076923073" as="geometry" />
        </mxCell>
        <mxCell id="eUgnzbrfR_kHX7VscJpC-99" value="" style="endArrow=none;html=1;rounded=0;exitX=0.5;exitY=0;exitDx=0;exitDy=0;exitPerimeter=0;entryX=0.5;entryY=1;entryDx=0;entryDy=0;entryPerimeter=0;" parent="1" source="eUgnzbrfR_kHX7VscJpC-88" target="eUgnzbrfR_kHX7VscJpC-15" edge="1">
          <mxGeometry width="50" height="50" relative="1" as="geometry">
            <mxPoint x="536.21" y="868.27" as="sourcePoint" />
            <mxPoint x="586.21" y="818.27" as="targetPoint" />
          </mxGeometry>
        </mxCell>
        <mxCell id="eUgnzbrfR_kHX7VscJpC-100" value="" style="endArrow=none;html=1;rounded=0;exitX=0.5;exitY=1;exitDx=0;exitDy=0;exitPerimeter=0;entryX=0.5;entryY=0;entryDx=0;entryDy=0;entryPerimeter=0;" parent="1" source="eUgnzbrfR_kHX7VscJpC-15" target="eUgnzbrfR_kHX7VscJpC-91" edge="1">
          <mxGeometry width="50" height="50" relative="1" as="geometry">
            <mxPoint x="890" y="850" as="sourcePoint" />
            <mxPoint x="940" y="800" as="targetPoint" />
          </mxGeometry>
        </mxCell>
        <mxCell id="eUgnzbrfR_kHX7VscJpC-101" value="7" style="ellipse;whiteSpace=wrap;html=1;aspect=fixed;fillColor=#d80073;fontColor=#ffffff;strokeColor=#A50040;" parent="1" vertex="1">
          <mxGeometry x="540.0006437768241" y="848.076923076923" width="23.076923076923073" height="23.076923076923073" as="geometry" />
        </mxCell>
        <mxCell id="eUgnzbrfR_kHX7VscJpC-102" value="7" style="ellipse;whiteSpace=wrap;html=1;aspect=fixed;fillColor=#d80073;fontColor=#ffffff;strokeColor=#A50040;" parent="1" vertex="1">
          <mxGeometry x="680.8606437768241" y="850.076923076923" width="23.076923076923073" height="23.076923076923073" as="geometry" />
        </mxCell>
        <mxCell id="eUgnzbrfR_kHX7VscJpC-118" value="!" style="ellipse;whiteSpace=wrap;html=1;aspect=fixed;fillColor=#d80073;fontColor=#ffffff;strokeColor=#A50040;" parent="1" vertex="1">
          <mxGeometry x="999.9987982832619" y="-339.99538461538464" width="23.076923076923073" height="23.076923076923073" as="geometry" />
        </mxCell>
        <mxCell id="eUgnzbrfR_kHX7VscJpC-120" value="3" style="ellipse;whiteSpace=wrap;html=1;aspect=fixed;fillColor=#d80073;fontColor=#ffffff;strokeColor=#A50040;" parent="1" vertex="1">
          <mxGeometry x="879.7187982832619" y="181.9646153846154" width="23.076923076923073" height="23.076923076923073" as="geometry" />
        </mxCell>
        <mxCell id="eUgnzbrfR_kHX7VscJpC-121" value="" style="endArrow=classic;startArrow=classic;html=1;rounded=0;exitX=1;exitY=0.5;exitDx=0;exitDy=0;exitPerimeter=0;entryX=1;entryY=0.5;entryDx=0;entryDy=0;entryPerimeter=0;" parent="1" source="eUgnzbrfR_kHX7VscJpC-23" target="eUgnzbrfR_kHX7VscJpC-19" edge="1">
          <mxGeometry width="50" height="50" relative="1" as="geometry">
            <mxPoint x="600" y="420" as="sourcePoint" />
            <mxPoint x="650" y="370" as="targetPoint" />
            <Array as="points">
              <mxPoint x="380" y="471" />
              <mxPoint x="380" y="360" />
              <mxPoint x="380" y="260" />
            </Array>
          </mxGeometry>
        </mxCell>
        <mxCell id="eUgnzbrfR_kHX7VscJpC-125" value="" style="endArrow=classic;html=1;rounded=0;exitX=0.999;exitY=0.538;exitDx=0;exitDy=0;exitPerimeter=0;startArrow=classic;startFill=1;endFill=1;" parent="1" source="eUgnzbrfR_kHX7VscJpC-22" edge="1">
          <mxGeometry width="50" height="50" relative="1" as="geometry">
            <mxPoint x="340" y="369.23" as="sourcePoint" />
            <mxPoint x="380" y="370" as="targetPoint" />
          </mxGeometry>
        </mxCell>
        <mxCell id="eUgnzbrfR_kHX7VscJpC-126" value="8" style="ellipse;whiteSpace=wrap;html=1;aspect=fixed;fillColor=#d80073;fontColor=#ffffff;strokeColor=#A50040;" parent="1" vertex="1">
          <mxGeometry x="367.00064377682406" y="303.456923076923" width="23.076923076923073" height="23.076923076923073" as="geometry" />
        </mxCell>
        <mxCell id="Z_NICUgufwYysJqsNiaw-1" value="router" style="text;html=1;align=center;verticalAlign=middle;whiteSpace=wrap;rounded=0;" parent="1" vertex="1">
          <mxGeometry x="864.9200000000002" y="335.48" width="60" height="30" as="geometry" />
        </mxCell>
        <mxCell id="cidqjVt5TANMzqTdymb0-14" style="edgeStyle=orthogonalEdgeStyle;rounded=0;orthogonalLoop=1;jettySize=auto;html=1;exitX=0;exitY=0.5;exitDx=0;exitDy=0;entryX=0;entryY=0.5;entryDx=0;entryDy=0;" edge="1" parent="1" source="cidqjVt5TANMzqTdymb0-1" target="cidqjVt5TANMzqTdymb0-6">
          <mxGeometry relative="1" as="geometry">
            <Array as="points">
              <mxPoint x="460" y="-64" />
              <mxPoint x="460" y="-413" />
            </Array>
          </mxGeometry>
        </mxCell>
        <mxCell id="cidqjVt5TANMzqTdymb0-1" value="" style="rounded=1;whiteSpace=wrap;html=1;fillColor=#f5f5f5;fontColor=#333333;strokeColor=#666666;" vertex="1" parent="1">
          <mxGeometry x="666.9688412017167" y="-220.0038461538462" width="446.86695278969955" height="311.5384615384615" as="geometry" />
        </mxCell>
        <mxCell id="cidqjVt5TANMzqTdymb0-2" value="Приложение" style="text;html=1;align=center;verticalAlign=middle;whiteSpace=wrap;rounded=0;fontSize=15;" vertex="1" parent="1">
          <mxGeometry x="690" y="-250" width="60" height="30" as="geometry" />
        </mxCell>
        <mxCell id="cidqjVt5TANMzqTdymb0-3" value="pymongo-api" style="rounded=1;whiteSpace=wrap;html=1;fillColor=#dae8fc;strokeColor=#6c8ebf;" vertex="1" parent="1">
          <mxGeometry x="779.8205150214592" y="-119.99538461538461" width="141.11587982832617" height="69.23076923076923" as="geometry" />
        </mxCell>
        <mxCell id="cidqjVt5TANMzqTdymb0-4" value="pymongo-api" style="rounded=1;whiteSpace=wrap;html=1;fillColor=#dae8fc;strokeColor=#6c8ebf;" vertex="1" parent="1">
          <mxGeometry x="798.7805150214592" y="-99.99538461538461" width="141.11587982832617" height="69.23076923076923" as="geometry" />
        </mxCell>
        <mxCell id="cidqjVt5TANMzqTdymb0-5" value="pymongo-api" style="rounded=1;whiteSpace=wrap;html=1;fillColor=#dae8fc;strokeColor=#6c8ebf;" vertex="1" parent="1">
          <mxGeometry x="821.8605150214593" y="-79.99538461538461" width="141.11587982832617" height="69.23076923076923" as="geometry" />
        </mxCell>
        <mxCell id="cidqjVt5TANMzqTdymb0-6" value="Consul" style="rounded=1;whiteSpace=wrap;html=1;fillColor=#dae8fc;strokeColor=#6c8ebf;" vertex="1" parent="1">
          <mxGeometry x="532.9605150214593" y="-447.99538461538464" width="141.11587982832617" height="69.23076923076923" as="geometry" />
        </mxCell>
        <mxCell id="cidqjVt5TANMzqTdymb0-13" style="edgeStyle=orthogonalEdgeStyle;rounded=0;orthogonalLoop=1;jettySize=auto;html=1;exitX=1;exitY=0.5;exitDx=0;exitDy=0;startArrow=classic;startFill=1;" edge="1" parent="1" source="cidqjVt5TANMzqTdymb0-7">
          <mxGeometry relative="1" as="geometry">
            <mxPoint x="1179.9999999999995" y="-420.17647058823536" as="targetPoint" />
          </mxGeometry>
        </mxCell>
        <mxCell id="cidqjVt5TANMzqTdymb0-17" style="edgeStyle=orthogonalEdgeStyle;rounded=0;orthogonalLoop=1;jettySize=auto;html=1;exitX=1;exitY=0.75;exitDx=0;exitDy=0;entryX=0.75;entryY=0;entryDx=0;entryDy=0;" edge="1" parent="1" source="cidqjVt5TANMzqTdymb0-7" target="cidqjVt5TANMzqTdymb0-1">
          <mxGeometry relative="1" as="geometry">
            <Array as="points">
              <mxPoint x="983" y="-405" />
            </Array>
          </mxGeometry>
        </mxCell>
        <mxCell id="cidqjVt5TANMzqTdymb0-7" value="APISIX Gateway" style="rounded=1;whiteSpace=wrap;html=1;fillColor=#dae8fc;strokeColor=#6c8ebf;" vertex="1" parent="1">
          <mxGeometry x="819.9000000000001" y="-449.99999999999955" width="120" height="60" as="geometry" />
        </mxCell>
        <mxCell id="cidqjVt5TANMzqTdymb0-9" style="edgeStyle=orthogonalEdgeStyle;rounded=0;orthogonalLoop=1;jettySize=auto;html=1;exitX=0.5;exitY=1;exitDx=0;exitDy=0;entryX=0.5;entryY=1;entryDx=0;entryDy=0;" edge="1" parent="1" source="cidqjVt5TANMzqTdymb0-8" target="cidqjVt5TANMzqTdymb0-6">
          <mxGeometry relative="1" as="geometry">
            <Array as="points">
              <mxPoint x="880" y="-320" />
              <mxPoint x="604" y="-320" />
            </Array>
          </mxGeometry>
        </mxCell>
        <mxCell id="cidqjVt5TANMzqTdymb0-8" value="consul_kv" style="rounded=0;whiteSpace=wrap;html=1;" vertex="1" parent="1">
          <mxGeometry x="839.9000000000001" y="-407.27" width="80" height="30" as="geometry" />
        </mxCell>
        <mxCell id="cidqjVt5TANMzqTdymb0-10" value="" style="group" vertex="1" connectable="0" parent="1">
          <mxGeometry x="1180" y="-453.00000000000006" width="152.8599999999999" height="78" as="geometry" />
        </mxCell>
        <mxCell id="cidqjVt5TANMzqTdymb0-11" value="" style="image;sketch=0;aspect=fixed;html=1;points=[];align=center;fontSize=12;image=img/lib/mscae/Cache_Redis_Product.svg;" vertex="1" parent="cidqjVt5TANMzqTdymb0-10">
          <mxGeometry width="92.86" height="78" as="geometry" />
        </mxCell>
        <mxCell id="cidqjVt5TANMzqTdymb0-12" value="redis" style="text;html=1;align=center;verticalAlign=middle;whiteSpace=wrap;rounded=0;fontSize=19;" vertex="1" parent="cidqjVt5TANMzqTdymb0-10">
          <mxGeometry x="92.8599999999999" y="24.29000000000002" width="60" height="30" as="geometry" />
        </mxCell>
        <mxCell id="cidqjVt5TANMzqTdymb0-16" style="edgeStyle=orthogonalEdgeStyle;rounded=0;orthogonalLoop=1;jettySize=auto;html=1;entryX=0.5;entryY=0;entryDx=0;entryDy=0;" edge="1" parent="1" source="cidqjVt5TANMzqTdymb0-15" target="cidqjVt5TANMzqTdymb0-7">
          <mxGeometry relative="1" as="geometry" />
        </mxCell>
        <mxCell id="cidqjVt5TANMzqTdymb0-15" value="NGINX" style="rounded=1;whiteSpace=wrap;html=1;fillColor=#dae8fc;strokeColor=#6c8ebf;" vertex="1" parent="1">
          <mxGeometry x="819.9000000000001" y="-609.9999999999995" width="120" height="60" as="geometry" />
        </mxCell>
        <mxCell id="cidqjVt5TANMzqTdymb0-24" value="2" style="ellipse;whiteSpace=wrap;html=1;aspect=fixed;fillColor=#d80073;fontColor=#ffffff;strokeColor=#A50040;" vertex="1" parent="1">
          <mxGeometry x="1079.9987982832617" y="-459.99538461538464" width="23.076923076923073" height="23.076923076923073" as="geometry" />
        </mxCell>
        <mxCell id="cidqjVt5TANMzqTdymb0-25" value="!" style="ellipse;whiteSpace=wrap;html=1;aspect=fixed;fillColor=#d80073;fontColor=#ffffff;strokeColor=#A50040;" vertex="1" parent="1">
          <mxGeometry x="689.9987982832617" y="-349.99538461538464" width="23.076923076923073" height="23.076923076923073" as="geometry" />
        </mxCell>
        <mxCell id="cidqjVt5TANMzqTdymb0-26" value="!" style="ellipse;whiteSpace=wrap;html=1;aspect=fixed;fillColor=#d80073;fontColor=#ffffff;strokeColor=#A50040;" vertex="1" parent="1">
          <mxGeometry x="516.9187982832617" y="-103.07538461538465" width="23.076923076923073" height="23.076923076923073" as="geometry" />
        </mxCell>
      </root>
    </mxGraphModel>
  </diagram>
</mxfile>
